<?xml version="1.0" ?><svg viewBox="0 0 64 64" xmlns="http://www.w3.org/2000/svg"><g data-name="Support-Call Center-Information-Help-Customer Service" id="Support-Call_Center-Information-Help-Customer_Service"><path d="M60,20A16.994,16.994,0,0,1,33.35,33.99L28,36l1.93-5.14A17,17,0,1,1,60,20Z" style="fill:#00ccb3"/><polygon points="50 18 50 22 45 22 45 27 41 27 41 22 36 22 36 18 41 18 41 13 45 13 45 18 50 18" style="fill:#e6e7e8"/><path d="M45.9,51.9a2,2,0,0,1-.1,2.94,25.22,25.22,0,0,1-3.48,2.48L31,46l3.09-3.09a1.992,1.992,0,0,1,2.82,0Z" style="fill:#e6e7e8"/><path d="M31,46,42.32,57.32A25.987,25.987,0,0,1,18.3,58.7,25.989,25.989,0,0,1,3,35,25.76,25.76,0,0,1,6.68,21.68L18,33l-2.2,2.2a5.988,5.988,0,0,0-1.16,6.87,16.082,16.082,0,0,0,7.29,7.29A5.988,5.988,0,0,0,28.8,48.2Z" style="fill:#3d9ae2"/><path d="M21.09,27.09a1.992,1.992,0,0,1,0,2.82L18,33,6.68,21.68A25.22,25.22,0,0,1,9.16,18.2a2,2,0,0,1,2.94-.1Z" style="fill:#e6e7e8"/></g></svg>