<?xml version="1.0" ?><!DOCTYPE svg  PUBLIC '-//W3C//DTD SVG 1.1//EN'  'http://www.w3.org/Graphics/SVG/1.1/DTD/svg11.dtd'><svg enable-background="new 0 0 512 512" id="Layer_1" version="1.1" viewBox="0 0 512 512" xml:space="preserve" xmlns="http://www.w3.org/2000/svg" xmlns:xlink="http://www.w3.org/1999/xlink"><g><g><path d="M299.8,315.3c-5,0-9-4-9-9v-48.6c0-9.3-7.6-16.9-16.9-16.9c-9.2,0-16.7,7.6-16.7,16.9v48.6c0,5-4,9-9,9    s-9-4-9-9v-48.6c0-19.2,15.6-34.9,34.7-34.9c19.2,0,34.9,15.7,34.9,34.9v48.6C308.8,311.3,304.8,315.3,299.8,315.3z" fill="#0078B5"/><path d="M248.2,315.3c-5,0-9-4-9-9v-74.5c0-5,4-9,9-9s9,4,9,9v74.5C257.2,311.3,253.2,315.3,248.2,315.3z" fill="#0078B5"/><path d="M212.2,314.9c-5,0-9-4-9-9v-74.5c0-5,4-9,9-9s9,4,9,9v74.5C221.2,310.9,217.1,314.9,212.2,314.9z" fill="#0078B5"/><path d="M212.2,217c-5,0-9-4-9-9v-2.4c0-5,4-9,9-9s9,4,9,9v2.4C221.2,213,217.1,217,212.2,217z" fill="#0078B5"/></g></g><g><g><path d="M315.5,381.6h-117c-5,0-9-4-9-9s4-9,9-9h117c23.6,0,42.8-19,42.8-42.4V190.8c0-23.4-19.2-42.4-42.8-42.4    H196.1c-23.4,0-42.4,19-42.4,42.4v128.9c0,5-4,9-9,9s-9-4-9-9V190.8c0-33.3,27.1-60.4,60.4-60.4h119.3c33.5,0,60.8,27.1,60.8,60.4    v130.5C376.3,354.5,349,381.6,315.5,381.6z" fill="#0078B5"/></g></g></svg>