<?xml version="1.0" encoding="UTF-8" standalone="no"?><!-- Generator: Gravit.io --><svg xmlns="http://www.w3.org/2000/svg" xmlns:xlink="http://www.w3.org/1999/xlink" style="isolation:isolate" viewBox="0 0 1200 1050" width="60px" height="60px"><defs><clipPath id="_clipPath_U5svu4xtGPcINBUSSxKkveoYSLH2sOhs"><rect width="1200" height="1050"/></clipPath></defs><g clip-path="url(#_clipPath_U5svu4xtGPcINBUSSxKkveoYSLH2sOhs)"><rect width="1200" height="1050" style="fill:rgb(0,0,0)" fill-opacity="0"/><defs><filter id="SrckQYmsXztxwCpvyh7AxrFGgIBWNurW" x="-200%" y="-200%" width="400%" height="400%" filterUnits="objectBoundingBox" color-interpolation-filters="sRGB"><feGaussianBlur xmlns="http://www.w3.org/2000/svg" in="SourceGraphic" stdDeviation="6.440413594258542"/><feOffset xmlns="http://www.w3.org/2000/svg" dx="5" dy="5" result="pf_100_offsetBlur"/><feFlood xmlns="http://www.w3.org/2000/svg" flood-color="#000000" flood-opacity="0.3"/><feComposite xmlns="http://www.w3.org/2000/svg" in2="pf_100_offsetBlur" operator="in" result="pf_100_dropShadow"/><feBlend xmlns="http://www.w3.org/2000/svg" in="SourceGraphic" in2="pf_100_dropShadow" mode="normal"/></filter><linearGradient id="_lgradient_14" x1="0.21919185258367957" y1="0.13272603078078893" x2="1.0655588642091374" y2="1.1066125170880148"><stop offset="5.416666666666667%" style="stop-color:#F0F4F9"/><stop offset="76.25%" style="stop-color:#CBC3F9"/></linearGradient></defs><g filter="url(#SrckQYmsXztxwCpvyh7AxrFGgIBWNurW)"><path d="M 390.216 48.22 L 838.731 48.22 C 982.904 48.22 1099.152 165.268 1098.164 309.438 L 1095.237 736.322 C 1094.249 880.492 976.397 997.54 832.224 997.54 L 383.709 997.54 C 239.536 997.54 123.288 880.492 124.276 736.322 L 127.203 309.438 C 128.191 165.268 246.043 48.22 390.216 48.22 Z" style="stroke:none;fill:url(#_lgradient_14);stroke-miterlimit:10;"/></g><defs><filter id="VohcCKlP1zJqOGQyldpY3J1QdQzfNTjt" x="-200%" y="-200%" width="400%" height="400%" filterUnits="objectBoundingBox" color-interpolation-filters="sRGB"><feGaussianBlur xmlns="http://www.w3.org/2000/svg" in="SourceGraphic" stdDeviation="6.440413594258542"/><feOffset xmlns="http://www.w3.org/2000/svg" dx="5" dy="5" result="pf_100_offsetBlur"/><feFlood xmlns="http://www.w3.org/2000/svg" flood-color="#000000" flood-opacity="0.3"/><feComposite xmlns="http://www.w3.org/2000/svg" in2="pf_100_offsetBlur" operator="in" result="pf_100_dropShadow"/><feBlend xmlns="http://www.w3.org/2000/svg" in="SourceGraphic" in2="pf_100_dropShadow" mode="normal"/></filter></defs><g filter="url(#VohcCKlP1zJqOGQyldpY3J1QdQzfNTjt)"><line x1="350.94" y1="876.159" x2="540.236" y2="907.709"/></g><g><rect x="59.107" y="-23" width="1127.893" height="1073.422" transform="matrix(1,0,0,1,0,0)" fill="none"/><defs><filter id="v0iIQ1IzBWqidjPSANJ02fqC2VTmDV13" x="-200%" y="-200%" width="400%" height="400%" filterUnits="objectBoundingBox" color-interpolation-filters="sRGB"><feGaussianBlur xmlns="http://www.w3.org/2000/svg" in="SourceGraphic" stdDeviation="6.440413594258542"/><feOffset xmlns="http://www.w3.org/2000/svg" dx="3" dy="3" result="pf_100_offsetBlur"/><feFlood xmlns="http://www.w3.org/2000/svg" flood-color="#000000" flood-opacity="0.25"/><feComposite xmlns="http://www.w3.org/2000/svg" in2="pf_100_offsetBlur" operator="in" result="pf_100_dropShadow"/><feBlend xmlns="http://www.w3.org/2000/svg" in="SourceGraphic" in2="pf_100_dropShadow" mode="normal"/></filter></defs><g filter="url(#v0iIQ1IzBWqidjPSANJ02fqC2VTmDV13)"><linearGradient id="_lgradient_15" x1="0.01379856855420003" y1="0.2355359096297288" x2="0.9998253345752636" y2="0.5033476467135478" gradientTransform="matrix(629.717,0,0,643.091,308.195,192.166)" gradientUnits="userSpaceOnUse"><stop offset="0%" stop-opacity="1" style="stop-color:rgb(25,255,148)"/><stop offset="98.75%" stop-opacity="1" style="stop-color:rgb(82,51,255)"/></linearGradient><path d=" M 609.405 698.968 C 510.759 694.214 432.277 611.173 432.277 509.115 C 432.277 404.205 515.723 318.946 618.401 318.946 C 718.287 318.946 799.56 399.134 804.214 499.924 L 739.07 479.956 C 726.352 423.856 677.029 382.336 618.401 382.336 C 549.845 382.336 494.318 439.07 494.318 509.115 C 494.318 569.019 534.955 619.414 589.862 632.409 L 609.405 698.968 Z  M 928.606 509.115 C 928.606 518.624 928.296 528.132 927.365 537.641 L 866.255 518.941 C 866.565 515.771 866.565 512.285 866.565 509.115 C 866.565 369.024 755.511 255.556 618.401 255.556 C 481.29 255.556 370.236 369.024 370.236 509.115 C 370.236 649.207 481.29 762.675 618.401 762.675 C 621.503 762.675 624.915 762.675 628.017 762.358 L 646.319 824.797 C 637.013 825.748 627.707 826.065 618.401 826.065 C 447.167 826.065 308.195 684.072 308.195 509.115 C 308.195 334.159 447.167 192.166 618.401 192.166 C 789.634 192.166 928.606 334.159 928.606 509.115 Z  M 811.658 644.136 L 882.075 620.048 C 896.344 615.293 896.034 594.375 881.765 589.938 L 646.009 517.673 C 634.221 514.187 623.054 525.28 626.776 537.324 L 697.503 778.206 C 701.846 793.102 722.319 793.419 726.972 778.523 L 750.548 706.575 L 871.838 830.502 C 878.042 836.841 887.659 836.841 893.863 830.502 L 933.259 790.25 C 939.463 783.911 939.463 774.085 933.259 767.746 L 811.658 644.136 Z " fill="url(#_lgradient_15)"/></g><g><path d=" M 533.182 416.14 L 712.925 416.14 L 712.925 611.283 L 533.182 611.283 L 533.182 416.14 Z " fill="none"/><linearGradient id="_lgradient_16" x1="0" y1="0.5" x2="1" y2="0.5" gradientTransform="matrix(149.786,0,0,162.619,548.16,432.402)" gradientUnits="userSpaceOnUse"><stop offset="0%" stop-opacity="1" style="stop-color:rgb(25,255,148)"/><stop offset="94.49996948242188%" stop-opacity="1" style="stop-color:rgb(80,57,252)"/><stop offset="97.5%" stop-opacity="1" style="stop-color:rgb(82,51,255)"/></linearGradient><path d=" M 623.054 432.402 C 581.713 432.402 548.16 468.828 548.16 513.711 C 548.16 558.594 581.713 595.021 623.054 595.021 C 664.395 595.021 697.947 558.594 697.947 513.711 C 697.947 468.828 664.395 432.402 623.054 432.402 Z  M 615.564 578.19 C 585.982 574.206 563.139 546.885 563.139 513.711 C 563.139 508.67 563.738 503.873 564.712 499.157 L 600.586 538.104 L 600.586 546.235 C 600.586 555.179 607.326 562.497 615.564 562.497 L 615.564 578.19 Z  M 667.241 557.537 C 665.293 550.951 659.751 546.235 653.011 546.235 L 645.522 546.235 L 645.522 521.842 C 645.522 517.37 642.151 513.711 638.032 513.711 L 593.096 513.711 L 593.096 497.449 L 608.075 497.449 C 612.194 497.449 615.564 493.79 615.564 489.318 L 615.564 473.056 L 630.543 473.056 C 638.781 473.056 645.522 465.738 645.522 456.794 L 645.522 453.461 C 667.465 463.137 682.968 486.472 682.968 513.711 C 682.968 530.624 676.977 545.991 667.241 557.537 Z " fill="url(#_lgradient_16)"/></g></g><g clip-path="url(#_clipPath_xNNJctqqGgnfmUCLZY1McbKQjZz6ILE2)"><text transform="matrix(2.292,0,0,2.292,302.436,1128.213)" style="font-family:'Russo One';font-weight:400;font-size:48px;font-style:normal;fill:#555454;stroke:none;">JGuilherme </text></g><defs><clipPath id="_clipPath_xNNJctqqGgnfmUCLZY1McbKQjZz6ILE2"><rect x="0" y="0" width="277.5" height="48.468" transform="matrix(2.292,0,0,2.292,302.436,1026.317)"/></clipPath></defs><g clip-path="url(#_clipPath_TgspJ0WyTXyxi0ccLHJvXw3AZQY865Re)"><text transform="matrix(2.292,0,0,2.292,267.967,1243.211)" style="font-family:'Russo One';font-weight:400;font-size:36px;font-style:normal;fill:#5233FF;stroke:none;">Small Solutions</text></g><defs><clipPath id="_clipPath_TgspJ0WyTXyxi0ccLHJvXw3AZQY865Re"><rect x="0" y="0" width="309.786" height="51.375" transform="matrix(2.292,0,0,2.292,267.967,1166.789)"/></clipPath></defs></g></svg>