<?xml version="1.0" ?><svg width="90px" height="90px" data-name="Layer 1" id="Layer_1" viewBox="0 0 512 512" xmlns="http://www.w3.org/2000/svg"><title/><rect fill="#19FF94" height="412.22" rx="55.43" width="412.22" x="49.89" y="49.89"/><path d="M127.82,378.71,153,313a125.52,125.52,0,1,1,41.78,40.24ZM200,334.34l2.27,1.42a105.31,105.31,0,1,0-32-30.74l1.57,2.34L155,351.48Z" fill="#fefefe"/><path d="M317.14,268.34c-11.59-6-23.91-11.56-24-11.61-4.24-2-7.22.23-8.14,1.56l-9.64,12c-2.6,2.28-6.22,0-6.62-.24a79.36,79.36,0,0,1-38.41-33.64c-2-2.56-.25-4.23.13-4.55l0,0c4-3.46,7.69-9.35,7.83-9.58,2.39-3.74.25-8.39.18-8.54l-10.35-23.95c-2.45-4.67-8-3.87-8.08-3.84h-4.11a9,9,0,0,0-7.49,2.26h0a34.85,34.85,0,0,0-10.8,14.28,43.77,43.77,0,0,0,5.59,38.37c17.78,28.79,34.89,40.31,35.57,40.75,24,17.54,48.08,20,49,20.08a29.94,29.94,0,0,0,4.05.27,32,32,0,0,0,22.48-9.73c5.58-4.81,6.45-15.65,6.48-16.21C320.84,270,317.19,268.36,317.14,268.34Z" fill="#fefefe"/></svg>