<?xml version="1.0" encoding="iso-8859-1"?>
<!-- Generator: Adobe Illustrator 19.1.0, SVG Export Plug-In . SVG Version: 6.00 Build 0)  -->
<svg version="1.1" id="Capa_1" xmlns="http://www.w3.org/2000/svg" xmlns:xlink="http://www.w3.org/1999/xlink" x="0px" y="0px"
	 viewBox="0 0 65.495 65.495" style="enable-background:new 0 0 65.495 65.495;" xml:space="preserve">
<g>
	<g id="group-9svg">
		<path id="path-1_72_" style="fill:#81BDA4;" d="M53.512,40.94l-6.471,6.471L35.446,35.816L23.853,24.222l6.47-6.471
			c1.549-1.549,1.549-4.06,0-5.609l-5.985-5.985c-1.543-1.543-4.066-1.543-5.609,0L7.818,17.067c-3.097,3.098-3.097,8.12,0,11.218
			l17.581,17.58l16.806,16.807c3.098,3.097,8.12,3.097,11.218,0l10.91-10.911c1.549-1.549,1.549-4.06,0-5.609l-5.212-5.212
			C57.573,39.391,55.062,39.391,53.512,40.94z"/>
		<path id="path-2_72_" d="M43.816,63.495c-2.52,0-4.889-0.981-6.67-2.763L2.759,26.346c-3.678-3.678-3.678-9.662,0-13.34
			l10.91-10.91c1.03-1.029,2.403-1.596,3.866-1.596c1.464,0,2.836,0.567,3.866,1.596l5.985,5.985c2.131,2.131,2.131,5.599,0,7.731
			l-5.41,5.41l21.067,21.067l5.41-5.41c1.032-1.033,2.405-1.601,3.865-1.601s2.834,0.568,3.866,1.601l5.212,5.213
			c1.033,1.032,1.601,2.404,1.601,3.865c0,1.46-0.568,2.833-1.601,3.866L50.485,60.732C48.702,62.514,46.333,63.495,43.816,63.495z
			 M17.534,3.5c-0.662,0-1.281,0.255-1.744,0.718L4.88,15.127c-2.508,2.509-2.508,6.59,0,9.098l34.387,34.386
			c1.215,1.215,2.83,1.884,4.549,1.884c1.717,0,3.333-0.669,4.547-1.884l10.911-10.91c0.465-0.466,0.722-1.085,0.722-1.744
			s-0.257-1.278-0.722-1.744L54.062,39c-0.932-0.931-2.557-0.931-3.489,0l-6.47,6.471c-0.563,0.563-1.559,0.563-2.121,0
			L18.793,22.283c-0.586-0.586-0.586-1.536,0-2.122l6.471-6.47c0.961-0.962,0.961-2.527,0-3.489l-5.986-5.985
			C18.816,3.755,18.196,3.5,17.534,3.5z"/>
		<path id="path-3_72_" d="M56.954,53.64c-0.384,0-0.767-0.146-1.06-0.439L45.073,42.38c-0.586-0.586-0.586-1.536,0-2.121
			c0.586-0.586,1.535-0.586,2.121,0L58.016,51.08c0.586,0.585,0.586,1.536,0,2.121C57.724,53.494,57.34,53.64,56.954,53.64z"/>
		<path id="path-4_61_" d="M22.944,19.63c-0.383,0-0.767-0.146-1.06-0.439L10.289,7.596c-0.586-0.585-0.586-1.536,0-2.121
			c0.586-0.586,1.535-0.586,2.121,0L24.006,17.07c0.586,0.585,0.586,1.535,0,2.121C23.713,19.484,23.329,19.63,22.944,19.63z"/>
		<path id="path-5_45_" style="fill:#E56A77;" d="M43.448,33.898c0-5.311,4.305-9.616,9.617-9.616c5.31,0,9.615,4.305,9.615,9.616
			l0,0"/>
		<path id="path-6_36_" d="M59.68,34.398c-0.828,0-1.5-0.672-1.5-1.5c0-4.475-3.641-8.116-8.115-8.116
			c-4.476,0-8.117,3.641-8.117,8.116c0,0.828-0.672,1.5-1.5,1.5s-1.5-0.672-1.5-1.5c0-6.13,4.987-11.116,11.117-11.116
			c6.128,0,11.115,4.986,11.115,11.116C61.18,33.726,60.507,34.398,59.68,34.398z"/>
		<path id="path-7_24_" style="fill:#EDC951;" d="M58.321,18.29c0,2.903-2.353,5.257-5.256,5.257c-2.904,0-5.257-2.354-5.257-5.257
			s2.353-5.257,5.257-5.257C55.967,13.033,58.321,15.387,58.321,18.29z"/>
		<path id="path-8_13_" d="M50.064,24.047c-3.726,0-6.757-3.032-6.757-6.757c0-3.726,3.031-6.757,6.757-6.757
			c3.725,0,6.756,3.031,6.756,6.757C56.821,21.015,53.79,24.047,50.064,24.047z M50.064,13.533c-2.072,0-3.757,1.686-3.757,3.757
			c0,2.071,1.685,3.757,3.757,3.757c2.071,0,3.756-1.686,3.756-3.757S52.135,13.533,50.064,13.533z"/>
	</g>
</g>
<g>
</g>
<g>
</g>
<g>
</g>
<g>
</g>
<g>
</g>
<g>
</g>
<g>
</g>
<g>
</g>
<g>
</g>
<g>
</g>
<g>
</g>
<g>
</g>
<g>
</g>
<g>
</g>
<g>
</g>
</svg>
